<svg width="18" height="24" viewBox="0 0 18 24" fill="none" xmlns="http://www.w3.org/2000/svg">
<path fill-rule="evenodd" clip-rule="evenodd" d="M2.00798e-07 23.2495V2.99993C2.00798e-07 2.2043 0.316063 1.44126 0.87866 0.87866C1.44126 0.316063 2.2043 0 2.99993 0L14.9997 0C15.7953 0 16.5583 0.316063 17.1209 0.87866C17.6835 1.44126 17.9996 2.2043 17.9996 2.99993V23.2495C17.9997 23.3797 17.9659 23.5077 17.9015 23.6209C17.837 23.7341 17.7443 23.8286 17.6323 23.895C17.5202 23.9615 17.3929 23.9976 17.2626 23.9999C17.1324 24.0022 17.0039 23.9705 16.8896 23.908L8.99979 19.6031L1.10997 23.908C0.995722 23.9705 0.867158 24.0022 0.736941 23.9999C0.606723 23.9976 0.479339 23.9615 0.367329 23.895C0.255319 23.8286 0.162543 23.7341 0.0981346 23.6209C0.033726 23.5077 -9.50885e-05 23.3797 2.00798e-07 23.2495ZM13.2807 8.7808C13.4215 8.63997 13.5006 8.44897 13.5006 8.24981C13.5006 8.05065 13.4215 7.85965 13.2807 7.71882C13.1399 7.578 12.9489 7.49888 12.7497 7.49888C12.5505 7.49888 12.3595 7.578 12.2187 7.71882L8.24981 11.6892L6.53085 9.96877C6.46112 9.89904 6.37834 9.84373 6.28723 9.80599C6.19612 9.76825 6.09848 9.74883 5.99986 9.74883C5.90125 9.74883 5.8036 9.76825 5.71249 9.80599C5.62139 9.84373 5.53861 9.89904 5.46888 9.96877C5.39914 10.0385 5.34383 10.1213 5.30609 10.2124C5.26836 10.3035 5.24893 10.4011 5.24893 10.4998C5.24893 10.5984 5.26836 10.696 5.30609 10.7871C5.34383 10.8782 5.39914 10.961 5.46888 11.0307L7.71882 13.2807C7.78849 13.3505 7.87125 13.406 7.96237 13.4438C8.05348 13.4816 8.15116 13.501 8.24981 13.501C8.34846 13.501 8.44614 13.4816 8.53726 13.4438C8.62837 13.406 8.71113 13.3505 8.7808 13.2807L13.2807 8.7808Z" fill="#149911"/>
</svg>
