<svg width="15" height="15" viewBox="0 0 15 15" fill="none" xmlns="http://www.w3.org/2000/svg">
<path d="M2.449 14.155L2.896 13.931L2.449 14.155ZM12.551 14.155L12.998 14.379L12.551 14.155ZM0.703 5.757H14.297V4.757H0.703V5.757ZM14 5.46V5.899H15V5.46H14ZM12.386 13.757H2.614V14.757H12.386V13.757ZM1 5.899V5.46H0V5.899H1ZM2.896 13.931C1.6491 11.4371 0.999966 8.68721 1 5.899H0C0 8.843 0.685 11.746 2.002 14.379L2.896 13.931ZM2.614 13.757C2.734 13.757 2.843 13.825 2.896 13.931L2.002 14.379C2.05893 14.4926 2.14632 14.588 2.25439 14.6548C2.36247 14.7215 2.48697 14.7569 2.614 14.757V13.757ZM12.104 13.931C12.1302 13.8787 12.1705 13.8347 12.2203 13.8039C12.2701 13.7732 12.3275 13.7569 12.386 13.757V14.757C12.646 14.757 12.882 14.611 12.998 14.379L12.104 13.931ZM14 5.899C14 8.687 13.35 11.437 12.104 13.931L12.998 14.379C14.3146 11.7461 15 8.84275 15 5.899H14ZM14.297 5.757C14.2182 5.757 14.1427 5.72571 14.087 5.67001C14.0313 5.61431 14 5.53877 14 5.46H15C15 5.27355 14.9259 5.09474 14.7941 4.9629C14.6623 4.83107 14.4834 4.757 14.297 4.757V5.757ZM0.703 4.757C0.516553 4.757 0.337742 4.83107 0.205904 4.9629C0.0740659 5.09474 0 5.27355 0 5.46H1C1 5.53877 0.968709 5.61431 0.913011 5.67001C0.857312 5.72571 0.781769 5.757 0.703 5.757V4.757ZM3.929 5.514L6.929 0.514L6.07 0L3.07 5L3.928 5.514H3.929ZM8.071 0.514L11.071 5.514L11.929 5L8.929 0L8.071 0.514V0.514Z" fill="black"/>
</svg>
