<svg width="15" height="11" viewBox="0 0 15 11" fill="none" xmlns="http://www.w3.org/2000/svg">
<path d="M0 0.5C0 0.367392 0.0526784 0.240215 0.146447 0.146447C0.240215 0.0526784 0.367392 0 0.5 0H2C2.11153 3.08115e-05 2.21985 0.0373507 2.30773 0.106025C2.39561 0.174699 2.45801 0.270784 2.485 0.379L2.89 2H14.5C14.5734 2.00007 14.6459 2.0163 14.7124 2.04755C14.7788 2.0788 14.8375 2.12429 14.8844 2.1808C14.9313 2.23731 14.9651 2.30345 14.9835 2.37452C15.002 2.44558 15.0045 2.51984 14.991 2.592L13.491 10.592C13.4696 10.7066 13.4087 10.8101 13.3191 10.8846C13.2294 10.9591 13.1166 10.9999 13 11H4C3.88343 10.9999 3.77057 10.9591 3.68091 10.8846C3.59126 10.8101 3.53045 10.7066 3.509 10.592L2.01 2.607L1.61 1H0.5C0.367392 1 0.240215 0.947322 0.146447 0.853553C0.0526784 0.759785 0 0.632608 0 0.5ZM3.102 3L4.415 10H12.585L13.898 3H3.102Z" fill="black"/>
</svg>
