<svg id="flat" height="512" viewBox="0 0 512 512" width="512" xmlns="http://www.w3.org/2000/svg"><path d="m80 288v-128a32 32 0 0 1 32-32h288a32 32 0 0 1 32 32v128z" fill="#de9400"/><path d="m424.47389 336a32 32 0 0 0 30.54336-22.4552l31.726-101.52319a27.6089 27.6089 0 0 0 1.25675-8.23501v-.1778a27.6088 27.6088 0 0 0 -27.6088-27.6088 27.6088 27.6088 0 0 0 -26.38791 19.48944l-26.00329 84.51056h-304l-26.00325-84.51056a27.6088 27.6088 0 0 0 -26.38791-19.48944 27.6088 27.6088 0 0 0 -27.60884 27.6088v.1778a27.6089 27.6089 0 0 0 1.25675 8.235l31.726 101.52319a32 32 0 0 0 30.54336 22.45521z" fill="#fac623"/><path d="m128 240h104a24 24 0 0 1 24 24v16a0 0 0 0 1 0 0h-152a0 0 0 0 1 0 0v-16a24 24 0 0 1 24-24z" fill="#f6bb00"/><path d="m280 240h104a24 24 0 0 1 24 24v16a0 0 0 0 1 0 0h-152a0 0 0 0 1 0 0v-16a24 24 0 0 1 24-24z" fill="#eda600"/><g fill="#cf8300"><path d="m136 176h16v16h-16z"/><path d="m192 176h16v16h-16z"/><path d="m248 176h16v16h-16z"/><path d="m304 176h16v16h-16z"/><path d="m360 176h16v16h-16z"/></g><path d="m96 336-8 48h16l32-48z" fill="#b1712c"/><path d="m416 336 8 48h-16l-32-48z" fill="#b1712c"/></svg>