<?xml version="1.0" encoding="iso-8859-1"?>
<!-- Generator: Adobe Illustrator 19.0.0, SVG Export Plug-In . SVG Version: 6.00 Build 0)  -->
<svg version="1.1" id="Layer_1" xmlns="http://www.w3.org/2000/svg" xmlns:xlink="http://www.w3.org/1999/xlink" x="0px" y="0px"
	 viewBox="0 0 511.999 511.999" style="enable-background:new 0 0 511.999 511.999;" xml:space="preserve">
<rect x="72.515" y="331.44" style="fill:#575759;" width="22.745" height="45.49"/>
<rect x="416.746" y="331.44" style="fill:#474748;" width="22.745" height="45.49"/>
<path style="fill:#F1CE30;" d="M363.229,135.069h-79.25H148.77c-78.805,0-62.045,60.902-148.77,83.299c0,0,0.263,15.89,7.87,38.506
	c8.628,25.648,26.702,59.946,64.553,89.528h211.555h155.597c37.851-29.581,55.926-63.88,64.553-89.528
	c7.608-22.615,7.87-38.506,7.87-38.506C425.274,195.971,442.033,135.069,363.229,135.069z"/>
<path style="fill:#D9BA2C;" d="M363.229,135.069h-79.25H256v211.332h27.979h155.597c37.851-29.581,55.926-63.88,64.553-89.528
	c7.608-22.615,7.87-38.506,7.87-38.506C425.274,195.971,442.033,135.069,363.229,135.069z"/>
<path style="fill:#F1F1F2;" d="M166.081,232.59H78.789c-9.705,0-17.572,7.867-17.572,17.572l0,0c0,9.705,7.867,17.572,17.572,17.572
	h87.293c9.705,0,17.572-7.867,17.572-17.572l0,0C183.652,240.457,175.785,232.59,166.081,232.59z"/>
<path style="fill:#D8D8D9;" d="M345.919,232.59h87.293c9.705,0,17.572,7.867,17.572,17.572l0,0c0,9.705-7.867,17.572-17.572,17.572
	h-87.293c-9.705,0-17.572-7.867-17.572-17.572l0,0C328.348,240.457,336.215,232.59,345.919,232.59z"/>
<path style="fill:#F1F1F2;" d="M299.646,232.59h-87.293c-9.705,0-17.572,7.867-17.572,17.572l0,0
	c0,9.705,7.867,17.572,17.572,17.572h87.293c9.705,0,17.572-7.867,17.572-17.572l0,0C317.217,240.457,309.35,232.59,299.646,232.59z
	"/>
<path style="fill:#D9BA2C;" d="M7.87,256.874c8.628,25.648,26.702,59.946,64.553,89.528h211.555h155.597
	c37.851-29.581,55.926-63.88,64.553-89.528L7.87,256.874L7.87,256.874z"/>
<path style="fill:#D8D8D9;" d="M299.646,232.59H256v35.142h43.646c9.705,0,17.572-7.867,17.572-17.572l0,0
	C317.217,240.457,309.35,232.59,299.646,232.59z"/>
<path style="fill:#C7AA28;" d="M256,256.874v89.528h27.979h155.597c37.851-29.581,55.926-63.88,64.553-89.528L256,256.874
	L256,256.874z"/>
<g>
</g>
<g>
</g>
<g>
</g>
<g>
</g>
<g>
</g>
<g>
</g>
<g>
</g>
<g>
</g>
<g>
</g>
<g>
</g>
<g>
</g>
<g>
</g>
<g>
</g>
<g>
</g>
<g>
</g>
</svg>
