<?xml version="1.0" encoding="iso-8859-1"?>
<!-- Generator: Adobe Illustrator 18.0.0, SVG Export Plug-In . SVG Version: 6.00 Build 0)  -->
<!DOCTYPE svg PUBLIC "-//W3C//DTD SVG 1.1//EN" "http://www.w3.org/Graphics/SVG/1.1/DTD/svg11.dtd">
<svg version="1.1" id="Capa_1" xmlns="http://www.w3.org/2000/svg" xmlns:xlink="http://www.w3.org/1999/xlink" x="0px" y="0px"
	 viewBox="0 0 58 58" style="enable-background:new 0 0 58 58;" xml:space="preserve">
<path style="fill:#664C3B;" d="M8,12.25v12.557c2.373,1.215,4,3.679,4,6.527C12,31.702,11.702,32,11.335,32H29V12.25
	C29,9.903,27.097,8,24.75,8h-12.5C9.903,8,8,9.903,8,12.25z"/>
<path style="fill:#81624D;" d="M46,31.335c0-2.849,1.627-5.313,4-6.527V12.25C50,9.903,48.097,8,45.75,8h-12.5
	C30.903,8,29,9.903,29,12.25V32h17.665C46.298,32,46,31.702,46,31.335z"/>
<path style="fill:#564034;" d="M20.7,18.286C20.89,17.888,21,17.454,21,17s-0.11-0.888-0.3-1.286l1.007-1.007
	c0.391-0.391,0.391-1.023,0-1.414s-1.023-0.391-1.414,0l-1.018,1.018c-0.803-0.362-1.748-0.362-2.551,0l-1.018-1.018
	c-0.391-0.391-1.023-0.391-1.414,0s-0.391,1.023,0,1.414l1.007,1.007C15.11,16.112,15,16.546,15,17s0.11,0.888,0.3,1.286
	l-1.007,1.007c-0.391,0.391-0.391,1.023,0,1.414C14.488,20.902,14.744,21,15,21s0.512-0.098,0.707-0.293l1.007-1.007
	C17.112,19.89,17.546,20,18,20s0.888-0.11,1.286-0.3l1.007,1.007C20.488,20.902,20.744,21,21,21s0.512-0.098,0.707-0.293
	c0.391-0.391,0.391-1.023,0-1.414L20.7,18.286z M17.293,17.707C17.104,17.518,17,17.267,17,17s0.104-0.518,0.293-0.707
	S17.733,16,18,16s0.518,0.104,0.707,0.293C18.896,16.482,19,16.733,19,17s-0.104,0.518-0.293,0.707
	C18.328,18.085,17.672,18.085,17.293,17.707z"/>
<path style="fill:#705543;" d="M42.7,18.286C42.89,17.888,43,17.454,43,17s-0.11-0.888-0.3-1.286l1.007-1.007
	c0.391-0.391,0.391-1.023,0-1.414s-1.023-0.391-1.414,0l-1.018,1.018c-0.803-0.362-1.748-0.362-2.551,0l-1.018-1.018
	c-0.391-0.391-1.023-0.391-1.414,0s-0.391,1.023,0,1.414l1.007,1.007C37.11,16.112,37,16.546,37,17s0.11,0.888,0.3,1.286
	l-1.007,1.007c-0.391,0.391-0.391,1.023,0,1.414C36.488,20.902,36.744,21,37,21s0.512-0.098,0.707-0.293l1.007-1.007
	C39.112,19.89,39.546,20,40,20s0.888-0.11,1.286-0.3l1.007,1.007C42.488,20.902,42.744,21,43,21s0.512-0.098,0.707-0.293
	c0.391-0.391,0.391-1.023,0-1.414L42.7,18.286z M39.293,17.707C39.104,17.518,39,17.267,39,17s0.104-0.518,0.293-0.707
	S39.733,16,40,16s0.518,0.104,0.707,0.293C40.896,16.482,41,16.733,41,17s-0.104,0.518-0.293,0.707
	C40.328,18.085,39.672,18.085,39.293,17.707z"/>
<polygon style="fill:#9E6C53;" points="51,50 54,50 54,45 49,45 "/>
<polygon style="fill:#9E6C53;" points="7,50 4,50 4,45 9,45 "/>
<path style="fill:#543D30;" d="M55.508,41H2.492C1.116,41,0,39.884,0,38.508v-4.016C0,33.116,1.116,32,2.492,32h53.016
	C56.884,32,58,33.116,58,34.492v4.016C58,39.884,56.884,41,55.508,41z"/>
<rect x="2" y="41" style="fill:#423026;" width="54" height="4"/>
<path style="fill:#423026;" d="M11.335,32H1.252C0.561,32,0,31.439,0,30.748V25.83C0,24.819,0.819,24,1.83,24h2.835
	C8.716,24,12,27.284,12,31.335v0C12,31.702,11.702,32,11.335,32z"/>
<g>
	<path style="fill:#543D30;" d="M1.83,24h2.835C5.867,24,6.999,24.295,8,24.808V14H4.25C1.903,14,0,15.903,0,18.25v7.58
		C0,24.819,0.819,24,1.83,24z"/>
</g>
<path style="fill:#423026;" d="M46.665,32h10.083C57.439,32,58,31.439,58,30.748V25.83c0-1.011-0.819-1.83-1.83-1.83h-2.835
	C49.284,24,46,27.284,46,31.335v0C46,31.702,46.298,32,46.665,32z"/>
<g>
	<path style="fill:#543D30;" d="M56.17,24h-2.835c-1.202,0-2.334,0.295-3.335,0.808V14h3.75c2.347,0,4.25,1.903,4.25,4.25v7.58
		C58,24.819,57.181,24,56.17,24z"/>
</g>
<g>
</g>
<g>
</g>
<g>
</g>
<g>
</g>
<g>
</g>
<g>
</g>
<g>
</g>
<g>
</g>
<g>
</g>
<g>
</g>
<g>
</g>
<g>
</g>
<g>
</g>
<g>
</g>
<g>
</g>
</svg>
