<?xml version="1.0" encoding="iso-8859-1"?>
<!-- Generator: Adobe Illustrator 18.0.0, SVG Export Plug-In . SVG Version: 6.00 Build 0)  -->
<!DOCTYPE svg PUBLIC "-//W3C//DTD SVG 1.1//EN" "http://www.w3.org/Graphics/SVG/1.1/DTD/svg11.dtd">
<svg version="1.1" id="Capa_1" xmlns="http://www.w3.org/2000/svg" xmlns:xlink="http://www.w3.org/1999/xlink" x="0px" y="0px"
	 viewBox="0 0 58 58" style="enable-background:new 0 0 58 58;" xml:space="preserve">
<rect x="6" y="35" style="fill:#556080;" width="46" height="9"/>
<path style="fill:#CDD4D9;" d="M48.503,11h-5.675c-1.811,0-3.548,0.719-4.828,2c-1.281-1.281-3.017-2-4.828-2h-8.343
	c-1.811,0-3.548,0.719-4.828,2c-1.281-1.281-3.017-2-4.828-2H9.497C5.356,11,2,14.356,2,18.497v3.687
	c0.654-0.232,1.39-0.293,2.211,0.109C5.336,22.845,6,24.046,6,25.3V35h46v-9.7c0-1.253,0.664-2.455,1.789-3.007
	c0.821-0.403,1.557-0.342,2.211-0.109v-3.687C56,14.356,52.644,11,48.503,11z"/>
<path style="fill:#A6B2BC;" d="M20,27c-0.553,0-1-0.448-1-1v-1c0-0.552,0.447-1,1-1s1,0.448,1,1v1C21,26.552,20.553,27,20,27z
	 M20,23c-0.553,0-1-0.448-1-1v-1c0-0.552,0.447-1,1-1s1,0.448,1,1v1C21,22.552,20.553,23,20,23z M20,19c-0.553,0-1-0.448-1-1v-1
	c0-0.552,0.447-1,1-1s1,0.448,1,1v1C21,18.552,20.553,19,20,19z"/>
<path style="fill:#A6B2BC;" d="M38,27c-0.553,0-1-0.448-1-1v-1c0-0.552,0.447-1,1-1s1,0.448,1,1v1C39,26.552,38.553,27,38,27z
	 M38,23c-0.553,0-1-0.448-1-1v-1c0-0.552,0.447-1,1-1s1,0.448,1,1v1C39,22.552,38.553,23,38,23z M38,19c-0.553,0-1-0.448-1-1v-1
	c0-0.552,0.447-1,1-1s1,0.448,1,1v1C39,18.552,38.553,19,38,19z"/>
<g>
	<circle style="fill:#7383BF;" cx="8" cy="37" r="1"/>
	<circle style="fill:#7383BF;" cx="8" cy="43" r="1"/>
	<circle style="fill:#7383BF;" cx="11" cy="40" r="1"/>
	<circle style="fill:#7383BF;" cx="17" cy="40" r="1"/>
	<circle style="fill:#7383BF;" cx="14" cy="37" r="1"/>
	<circle style="fill:#7383BF;" cx="20" cy="37" r="1"/>
	<circle style="fill:#7383BF;" cx="14" cy="43" r="1"/>
	<circle style="fill:#7383BF;" cx="20" cy="43" r="1"/>
	<circle style="fill:#7383BF;" cx="23" cy="40" r="1"/>
	<circle style="fill:#7383BF;" cx="29" cy="40" r="1"/>
	<circle style="fill:#7383BF;" cx="26" cy="37" r="1"/>
	<circle style="fill:#7383BF;" cx="32" cy="37" r="1"/>
	<circle style="fill:#7383BF;" cx="26" cy="43" r="1"/>
	<circle style="fill:#7383BF;" cx="32" cy="43" r="1"/>
	<circle style="fill:#7383BF;" cx="35" cy="40" r="1"/>
	<circle style="fill:#7383BF;" cx="41" cy="40" r="1"/>
	<circle style="fill:#7383BF;" cx="38" cy="37" r="1"/>
	<circle style="fill:#7383BF;" cx="44" cy="37" r="1"/>
	<circle style="fill:#7383BF;" cx="38" cy="43" r="1"/>
	<circle style="fill:#7383BF;" cx="44" cy="43" r="1"/>
	<circle style="fill:#7383BF;" cx="47" cy="40" r="1"/>
	<circle style="fill:#7383BF;" cx="50" cy="37" r="1"/>
	<circle style="fill:#7383BF;" cx="50" cy="43" r="1"/>
</g>
<path style="fill:#7383BF;" d="M6,44H0V25c0-1.657,1.343-3,3-3h0c1.657,0,3,1.343,3,3V44z"/>
<path style="fill:#7383BF;" d="M58,44h-6V25c0-1.657,1.343-3,3-3h0c1.657,0,3,1.343,3,3V44z"/>
<path style="fill:#A6B2BC;" d="M39.414,30.586L39.414,30.586c-0.781,0.781-2.047,0.781-2.828,0l0,0
	C36.211,30.211,35.702,30,35.172,30H22.828c-0.53,0-1.039,0.211-1.414,0.586l0,0c-0.781,0.781-2.047,0.781-2.828,0l0,0
	C18.211,30.211,17.702,30,17.172,30H6v5h46v-5H40.828C40.298,30,39.789,30.211,39.414,30.586z"/>
<rect x="1" y="44" style="fill:#9E6C53;" width="4" height="3"/>
<rect x="53" y="44" style="fill:#9E6C53;" width="4" height="3"/>
<g>
</g>
<g>
</g>
<g>
</g>
<g>
</g>
<g>
</g>
<g>
</g>
<g>
</g>
<g>
</g>
<g>
</g>
<g>
</g>
<g>
</g>
<g>
</g>
<g>
</g>
<g>
</g>
<g>
</g>
</svg>
